<svg width="53" height="38" viewBox="0 0 53 38" fill="none" xmlns="http://www.w3.org/2000/svg">
<g filter="url(#filter0_d_208_494)">
<path d="M3.42141 14.6477V27.5231C1.53237 27.5231 0 25.9773 0 24.0717V8.95492C0 8.28863 0.163804 7.76093 0.494055 7.37182C0.824307 6.9827 1.27081 6.78815 1.8362 6.78815C2.1004 6.78815 2.35404 6.84411 2.59974 6.95872C2.84545 7.07332 3.09908 7.26254 3.36329 7.52906L17.8679 24.9672V3.45137C17.8679 1.54578 19.4003 -1.52588e-05 21.2894 -1.52588e-05V30.8305C21.2894 31.5155 21.1229 32.0485 20.7953 32.427C20.465 32.8081 20.037 32.9973 19.5086 32.9973C18.9247 32.9973 18.3779 32.7415 17.8679 32.2271L3.42141 14.6477Z" fill="white"/>
<path d="M30.4832 32.2298C29.9733 32.7441 29.429 33 28.8425 33C28.3141 33 27.8861 32.8081 27.5558 32.4296C27.2256 32.0485 27.0618 31.5182 27.0618 30.8332V-2.28882e-05C28.9508 -2.28882e-05 30.4832 1.54577 30.4832 3.45136V24.9699L44.9878 7.53172C45.252 7.2652 45.5057 7.07598 45.7514 6.96137C45.9971 6.84677 46.2507 6.7908 46.5149 6.7908C47.0803 6.7908 47.5294 6.98536 47.8571 7.37447C48.1873 7.76359 48.3511 8.29129 48.3511 8.95758V24.0744C48.3511 25.9799 46.8188 27.5257 44.9297 27.5257V14.6477L30.4832 32.2298Z" fill="white"/>
<path d="M25.5268 -2.28882e-05H22.8979V33H25.5268V-2.28882e-05Z" fill="#FF0000"/>
</g>
<defs>
<filter id="filter0_d_208_494" x="0" y="-2.28882e-05" width="52.3511" height="38" filterUnits="userSpaceOnUse" color-interpolation-filters="sRGB">
<feFlood flood-opacity="0" result="BackgroundImageFix"/>
<feColorMatrix in="SourceAlpha" type="matrix" values="0 0 0 0 0 0 0 0 0 0 0 0 0 0 0 0 0 0 127 0" result="hardAlpha"/>
<feOffset dx="2" dy="3"/>
<feGaussianBlur stdDeviation="1"/>
<feComposite in2="hardAlpha" operator="out"/>
<feColorMatrix type="matrix" values="0 0 0 0 0 0 0 0 0 0 0 0 0 0 0 0 0 0 0.9 0"/>
<feBlend mode="normal" in2="BackgroundImageFix" result="effect1_dropShadow_208_494"/>
<feBlend mode="normal" in="SourceGraphic" in2="effect1_dropShadow_208_494" result="shape"/>
</filter>
</defs>
</svg>
