<svg width="33" height="22" viewBox="0 0 33 22" fill="currentColor" xmlns="http://www.w3.org/2000/svg">
<path d="M2.93091 10.0307V18.428C1.69887 18.428 0.699463 17.4198 0.699463 16.177V6.31783C0.699463 5.88328 0.806296 5.53911 1.02169 5.28533C1.23708 5.03155 1.52829 4.90466 1.89703 4.90466C2.06935 4.90466 2.23477 4.94116 2.39502 5.01591C2.55527 5.09065 2.72069 5.21406 2.893 5.38789L12.3529 16.7611V2.72841C12.3529 1.48558 13.3524 0.477417 14.5844 0.477417V20.5851C14.5844 21.0319 14.4758 21.3795 14.2622 21.6263C14.0468 21.8749 13.7676 21.9983 13.423 21.9983C13.0422 21.9983 12.6855 21.8314 12.3529 21.496L2.93091 10.0307Z" fill="white"/>
<path d="M20.5806 21.4977C20.248 21.8332 19.893 22 19.5105 22C19.1659 22 18.8867 21.8749 18.6713 21.6281C18.456 21.3795 18.3491 21.0336 18.3491 20.5869V0.477417C19.5812 0.477417 20.5806 1.48558 20.5806 2.72841V16.7628L30.0405 5.38962C30.2128 5.2158 30.3782 5.09239 30.5385 5.01765C30.6987 4.9429 30.8642 4.9064 31.0365 4.9064C31.4052 4.9064 31.6982 5.03329 31.9118 5.28707C32.1272 5.54085 32.2341 5.88502 32.2341 6.31957V16.1787C32.2341 17.4216 31.2346 18.4297 30.0026 18.4297V10.0307L20.5806 21.4977Z" fill="white"/>
<path d="M17.3481 0.477417H15.6335V22H17.3481V0.477417Z" fill="white"/>
</svg>
