<svg width="21" height="10" viewBox="0 0 21 10" fill="none" xmlns="http://www.w3.org/2000/svg">
<path d="M3.75206 0.288C4.67606 0.288 5.46806 0.588 6.06806 1.356L5.38406 1.848C4.97606 1.284 4.46006 1.008 3.72806 1.008C2.61206 1.008 1.82006 1.632 1.82006 2.616C1.82006 3.48 2.28806 3.972 3.59606 4.356C5.07206 4.8 6.20006 5.148 6.20006 6.828C6.20006 8.208 5.09606 9.216 3.56006 9.216C2.43206 9.216 1.46006 8.856 0.800063 7.932L1.55606 7.428C1.98806 8.148 2.66006 8.496 3.50006 8.496C4.60406 8.496 5.40806 7.812 5.40806 6.828C5.40806 5.712 4.61606 5.496 2.91206 4.932C1.64006 4.512 1.02806 3.816 1.02806 2.616C1.02806 1.212 2.19206 0.288 3.75206 0.288ZM7.99603 9V0.504H13.192V1.224H8.78803V4.248H12.916V4.968H8.78803V8.28H13.384V9H7.99603ZM14.0893 1.224V0.504H20.6893V1.224H17.7853V9H16.9933V1.224H14.0893Z" fill="white"/>
</svg>
