<svg width="28" height="28" viewBox="0 0 28 28" fill="none" xmlns="http://www.w3.org/2000/svg">
<path d="M10.7916 25.6667L10.3249 21.9333C10.0721 21.8361 9.83393 21.7195 9.61032 21.5833C9.38671 21.4472 9.16796 21.3014 8.95407 21.1458L5.48324 22.6042L2.2749 17.0625L5.27907 14.7875C5.25962 14.6514 5.2499 14.5201 5.2499 14.3938V13.6063C5.2499 13.4799 5.25962 13.3486 5.27907 13.2125L2.2749 10.9375L5.48324 5.39584L8.95407 6.85418C9.16796 6.69862 9.39157 6.55279 9.6249 6.41668C9.85824 6.28057 10.0916 6.1639 10.3249 6.06668L10.7916 2.33334H17.2082L17.6749 6.06668C17.9277 6.1639 18.1659 6.28057 18.3895 6.41668C18.6131 6.55279 18.8318 6.69862 19.0457 6.85418L22.5166 5.39584L25.7249 10.9375L22.7207 13.2125C22.7402 13.3486 22.7499 13.4799 22.7499 13.6063V14.3938C22.7499 14.5201 22.7305 14.6514 22.6916 14.7875L25.6957 17.0625L22.4874 22.6042L19.0457 21.1458C18.8318 21.3014 18.6082 21.4472 18.3749 21.5833C18.1416 21.7195 17.9082 21.8361 17.6749 21.9333L17.2082 25.6667H10.7916ZM12.8332 23.3333H15.1374L15.5457 20.2417C16.1485 20.0861 16.7075 19.8576 17.2228 19.5563C17.7381 19.2549 18.2096 18.8903 18.6374 18.4625L21.5249 19.6583L22.6624 17.675L20.1541 15.7792C20.2513 15.507 20.3193 15.2201 20.3582 14.9188C20.3971 14.6174 20.4166 14.3111 20.4166 14C20.4166 13.6889 20.3971 13.3826 20.3582 13.0813C20.3193 12.7799 20.2513 12.4931 20.1541 12.2208L22.6624 10.325L21.5249 8.34168L18.6374 9.56668C18.2096 9.11945 17.7381 8.74515 17.2228 8.44376C16.7075 8.14237 16.1485 7.9139 15.5457 7.75834L15.1666 4.66668H12.8624L12.4541 7.75834C11.8513 7.9139 11.2923 8.14237 10.777 8.44376C10.2617 8.74515 9.79018 9.10973 9.3624 9.53751L6.4749 8.34168L5.3374 10.325L7.84574 12.1917C7.74851 12.4833 7.68046 12.775 7.64157 13.0667C7.60268 13.3583 7.58324 13.6695 7.58324 14C7.58324 14.3111 7.60268 14.6125 7.64157 14.9042C7.68046 15.1958 7.74851 15.4875 7.84574 15.7792L5.3374 17.675L6.4749 19.6583L9.3624 18.4333C9.79018 18.8806 10.2617 19.2549 10.777 19.5563C11.2923 19.8576 11.8513 20.0861 12.4541 20.2417L12.8332 23.3333ZM14.0582 18.0833C15.186 18.0833 16.1485 17.6847 16.9457 16.8875C17.743 16.0903 18.1416 15.1278 18.1416 14C18.1416 12.8722 17.743 11.9097 16.9457 11.1125C16.1485 10.3153 15.186 9.91668 14.0582 9.91668C12.911 9.91668 11.9437 10.3153 11.1562 11.1125C10.3687 11.9097 9.9749 12.8722 9.9749 14C9.9749 15.1278 10.3687 16.0903 11.1562 16.8875C11.9437 17.6847 12.911 18.0833 14.0582 18.0833Z" fill="white"/>
</svg>
