<svg xmlns="http://www.w3.org/2000/svg" width="1032" height="942" version="1.2"><style>.s0{fill:#000001}</style><g id="Calque 1"><g id="&lt;Group&gt;"><path id="&lt;Path&gt;" d="M837.6 476.9h-.6c-8.4 0-15.7 5.4-18.1 13.4-34.7 117-143 202.4-271.4 202.4-155.4 0-284-129.6-283-285 1-147.9 115.4-268.8 260.6-280.2 9.9-.8 17.5-8.9 17.5-18.8v-.6c0-11.1-9.4-19.7-20.4-18.8-165.4 12.9-295.6 151-296 319.6-.1 53.6 13 104.2 36.2 148.8 5 9.6 3.1 21.4-4.6 29.1L60 784.6c-31.2 31.2-31.2 81.8 0 113l2 2c31.2 31.2 81.8 31.2 112.9 0L373.5 701c7.7-7.7 19.5-9.5 29.2-4.6 43.5 22.1 92.8 34.6 144.8 34.6 145.8 0 268.8-97 308.2-230 3.6-12-5.5-24.1-18.1-24.1z" class="s0"/><path d="M880.4 229.8c-34.1-34.2-37-122.5-44.7-122.5-7.7 0-8.8 89.5-44.5 122.4-35.8 33-118.8 33.2-118.8 40.9 0 7.6 82.8 5.7 119.9 42.7 37 37.1 35.7 120.6 43.4 120.6 7.7 0 14.3-92.3 47.6-125.6S999 278.2 999 270.6c0-7.7-84.4-6.6-118.6-40.8z" class="s0"/></g><path d="M662.2 387.2c-20.7-20.7-22.5-74.4-27.1-74.4-4.7 0-5.3 54.4-27 74.4-21.7 20-72.1 20.1-72.1 24.7 0 4.7 50.2 3.5 72.7 26s21.7 73.1 26.4 73.1c4.6 0 8.7-55.9 28.9-76.1 20.2-20.3 70.2-18.3 70.2-23 0-4.6-51.3-4-72-24.7zM688 88.9c-15.2-15.2-16.5-54.4-19.9-54.4-3.4 0-3.9 39.7-19.7 54.3-15.9 14.7-52.8 14.8-52.8 18.2 0 3.4 36.8 2.5 53.3 18.9 16.4 16.5 15.8 53.6 19.2 53.6 3.4 0 6.4-41 21.2-55.8 14.8-14.8 51.3-13.3 51.3-16.7 0-3.4-37.4-3-52.6-18.1z" class="s0"/></g></svg>