<svg width="661" height="110" viewBox="0 0 661 110" fill="none" xmlns="http://www.w3.org/2000/svg">
<path d="M202.109 63.8144H286.374V43.6625H202.109V22.2188H305.652V0H162.62V109.027H307.828V86.5499H202.109V63.8144Z" fill="black"/>
<path fill-rule="evenodd" clip-rule="evenodd" d="M451.481 72.8569L488.794 109.027H444.019L410.437 74.9238H371.57V109.027H331.77V0H426.606C465.784 0 489.105 13.9513 489.105 37.4619C489.105 58.1305 471.692 67.173 457.078 71.3067L451.481 72.8569ZM448.061 38.4953C448.061 27.6443 439.666 22.2188 422.564 22.2188H371.881V54.5135H422.564C439.666 54.5135 448.061 49.088 448.061 38.4953Z" fill="black"/>
<path d="M657.322 19.1185V0H510.559V22.4771H602.597L506.828 89.9085V109.027H660.742V86.2915H561.553L657.322 19.1185Z" fill="black"/>
<path d="M142.098 70.5317V47.7962H111.937L102.609 70.5317H142.098Z" fill="#fa2132 "/>
<path d="M40.4219 70.5317H79.9109L89.55 47.7962H40.4219V23.5106H142.098V0H0V109.027H40.4219V70.5317Z" fill="black"/>
</svg>
