<svg xmlns="http://www.w3.org/2000/svg" width="1032" height="942" version="1.2"><path fill-rule="evenodd" d="M733.2 161.8c51.3 0 92.9 41.7 92.9 92.9v433.5c0 51.2-41.6 92.9-92.9 92.9H299.7c-51.2 0-92.9-41.7-92.9-92.9V254.7c0-51.2 41.7-92.9 92.9-92.9zm31 92.9c0-17.1-13.9-31-31-31H299.7c-17.1 0-31 13.9-31 31v433.5c0 17.1 13.9 31 31 31h433.5c17.1 0 31-13.9 31-31zm-93 216.8c0 85.3-69.4 154.8-154.8 154.8-85.3 0-154.8-69.4-154.8-154.8S431 316.7 516.4 316.7s154.8 69.4 154.8 154.8zm-61.9 0c0-51.3-41.6-92.9-92.9-92.9-51.2 0-92.9 41.6-92.9 92.9 0 51.2 41.7 92.9 92.9 92.9 51.3 0 92.9-41.7 92.9-92.9zm83.9-176.8c5.6 5.9 9 13.9 9 22 0 8-3.4 16.1-9 21.9-1.5 1.3-3.1 2.5-4.6 3.8-1.9 1.2-3.7 2.1-5.6 2.7-1.9 1-3.7 1.6-5.6 1.9-2.1.3-4 .6-6.2.6-8 0-16.1-3.4-21.9-9-5.6-5.9-9-13.9-9-21.9 0-8.1 3.4-16.2 9-22l4.6-3.8c1.9-1.2 3.7-2.1 5.6-2.7q2.8-1.4 5.6-1.9c4.3-.9 8.3-.9 12.3 0 1.9.3 3.7.9 5.6 1.9 1.9.6 3.7 1.5 5.6 2.7l4.6 3.8z" style="fill:#000001"/></svg>