<svg width="448" height="341" viewBox="0 0 448 341" fill="none" xmlns="http://www.w3.org/2000/svg">
<rect width="448" height="341" fill="black"/>
<path d="M183 153.7H210.1V145.9H183V137.6H216.3V129H170.3V171.2H217V162.5H183V153.7Z" fill="white"/>
<path fill-rule="evenodd" clip-rule="evenodd" d="M263.2 157.2L275.2 171.2H260.8L250 158H237.5V171.2H224.7V129H255.2C267.8 129 275.3 134.4 275.3 143.5C275.3 151.5 269.7 155 265 156.6L263.2 157.2ZM262.1 143.9C262.1 139.7 259.4 137.6 253.9 137.6H237.6V150.1H253.9C259.4 150.1 262.1 148 262.1 143.9Z" fill="white"/>
<path d="M329.4 136.4V129H282.2V137.7H311.8L281 163.8V171.2H330.5V162.4H298.6L329.4 136.4Z" fill="white"/>
<path d="M163.7 156.3V147.5H154L151 156.3H163.7Z" fill="#fa2132 "/>
<path d="M131 156.3H143.7L146.8 147.5H131V138.1H163.7V129H118V171.2H131V156.3Z" fill="white"/>
</svg>
