<svg width="338" height="308" viewBox="0 0 338 308" fill="none" xmlns="http://www.w3.org/2000/svg">
<rect width="338" height="308" fill="white"/>
<path d="M128 157.7H155.1V149.9H128V141.6H161.3V133H115.3V175.2H162V166.5H128V157.7Z" fill="black"/>
<path fill-rule="evenodd" clip-rule="evenodd" d="M208.2 161.2L220.2 175.2H205.8L195 162H182.5V175.2H169.7V133H200.2C212.8 133 220.3 138.4 220.3 147.5C220.3 155.5 214.7 159 210 160.6L208.2 161.2ZM207.1 147.9C207.1 143.7 204.4 141.6 198.9 141.6H182.6V154.1H198.9C204.4 154.1 207.1 152 207.1 147.9Z" fill="black"/>
<path d="M274.4 140.4V133H227.2V141.7H256.8L226 167.8V175.2H275.5V166.4H243.6L274.4 140.4Z" fill="black"/>
<path d="M108.7 160.3V151.5H99L96 160.3H108.7Z" fill="#fa2132 "/>
<path d="M76 160.3H88.7L91.8 151.5H76V142.1H108.7V133H63V175.2H76V160.3Z" fill="black"/>
</svg>
