<svg xmlns="http://www.w3.org/2000/svg" width="1100" height="1000" version="1.2"><style>.s0{fill:#000}</style><g id="Calque 1"><g id="&lt;Group&gt;"><path id="&lt;Compound Path&gt;" fill-rule="evenodd" d="m506.5 534.9.3 47.2V607l-.3 1.3v.3l-1 2.3-1.6 1.9-1.9 1.3h-.4l-2.2.3 1.2-.3-15.1.3H245.7l-20.9-.3-20.7-1-21.4-1.6-20.6-2.9-13.9-2.3-13.6-3.2-13.2-3.9-13.3-4.5-12.9-5.2-12.3-6.4-6.5-3.9-5.8-4.5-5.5-5.5-4.8-6.5-2.6-5.1-2-5.2-1.3-5.5-1.2-8.1-1-7.7-1.6-22.6-.7-6.9-.6-29.4.3-29.3 2-29.5v-.3l.9-7.7 1.3-8.1 1.3-5.5 2-5.5 2.6-5.2 4.5-6.4 5.5-5.9 5.8-4.5 6.1-4.1 12.6-6.5 12.9-5.5 13.3-4.6 13.6-3.8 13.5-3.3 13.9-2.5 21-3 21.3-1.6 21.1-.6 20.9-.4h253.4l2.6.4 1.9 1.3 1.6 1.6 1 2.3v.3l.3 1.3zM128.8 378.2l-13.6 5.1-13.2 6.2-3.3 1.9-2.9 2.3-2.6 2.9-2.2 2.9-1.6 3.2-1.7 3.6-.9 3.5-.7 3.9-1.9 28.8-.6 29 .6 29.1 2.6 28.8.3 3.9 1 3.5 1.3 3.9 1.6 3.2 2.5 3.3 2.7 2.5 3.2 2 3.5 1.9 13 6.2 13.8 4.8 13.9 3.9 14.6 3.2 14.5 2.3 18.1 2.2 18.4 1.3 18.2.7 18.4.3h187.7l3.5-.6 3.2-1.7 2.7-2.6 2.2-3.8.7-4.2-.4-105.7v-83l-.3-3.5-1.6-3.6-2.3-2.6-3.8-2.3-4.2-.6H227.4l-18.5.6-18.4 1.7-18.4 1.9-14.6 2.6-14.5 3.2z" class="s0"/><path fill-rule="evenodd" d="m145.6 493.3-.7-27.8.7-22.3 1.3-22 .6-4.8 1.3-4.5 1.6-4.6 2.3-4.2 1.6-2.3 1.9-1.6 3.6-2.2 15.2-4.9 15.8-3.9 15.8-3.5 12.7-2.3 13.2-1.9 13.3-1.3 9-.6 9.4-.7 7.4-.3h155.1l.6.3 1 .7 1.3 1.9 1.3 4.2.3 4.5V481l.4 72-.4 3.9-.6 3.6-.3.9-.4 1-.6 1-.7.6-.6.3-1 .7H268.4l-11-.7-11.6-.6-17.8-2.3-17.5-2.5-16.8-3.6-16.5-4.2-15.8-5.2-2.6-.9-2.6-1.3-1.9-2-1.9-1.9-2.3-4.2-1.3-4.5-.9-4.9-.7-4.9zm276.1-30.4c-.9-7.7-3.3-15.1-6.9-22-3.6-6.6-8.2-12.4-13.8-17.4-11.5-10-26.1-15.6-41.3-15.6-2.5 0-5 .2-7.5.5-8.4 1-16.3 3.6-23.6 7.8-3.5 2-6.8 4.3-9.8 7-3.1 2.6-5.8 5.5-8.3 8.7-2.5 3.1-4.6 6.5-6.5 10.1-1.8 3.6-3.3 7.3-4.4 11.2-2.3 8.1-3 16.4-2 24.7 1 7.8 3.3 15.2 7 22 3.5 6.6 8.1 12.5 13.8 17.4 11.4 10.1 26 15.6 41.2 15.6q3.8 0 7.6-.4c8.4-1.1 16.3-3.7 23.5-7.8 3.5-2 6.8-4.4 9.9-7 3-2.7 5.8-5.6 8.3-8.7 2.4-3.2 4.6-6.6 6.4-10.1 1.8-3.6 3.3-7.4 4.5-11.3 2.3-8 2.9-16.3 1.9-24.7z" class="s0"/><path fill-rule="evenodd" d="M415.1 463.6c1.8 14.8-2.3 29.4-11.5 41.2-9.2 11.7-22.4 19.2-37.2 21q-3.4.4-6.8.4c-28.2 0-52-21.1-55.4-49.1-1.8-14.9 2.3-29.5 11.5-41.2 9.2-11.7 22.4-19.2 37.2-21 2.3-.3 4.6-.4 6.8-.4 28.2 0 52 21.1 55.4 49.1zM400 474.9l-10.7-7.5c-3.8-2.6-5.7-8.4-4.3-12.8l3.9-12.4c1.4-4.4-.9-6.4-5.1-4.5l-11.9 5.5c-4.1 1.9-10.1.7-13.2-2.7l-8.8-9.6c-3.2-3.4-6-2.4-6.5 2.2l-1.1 13c-.4 4.6-4.4 9.2-8.9 10.2l-12.8 2.8c-4.5 1-5.1 4-1.3 6.6l10.7 7.5c3.7 2.7 5.7 8.4 4.3 12.8l-3.9 12.5c-1.4 4.4.9 6.4 5.1 4.5l11.8-5.5c4.2-2 10.2-.8 13.3 2.6l8.8 9.6c3.1 3.4 6 2.5 6.4-2.1l1.2-13c.4-4.6 4.4-9.2 8.9-10.2l12.7-2.8c4.6-1 5.1-4 1.4-6.7zM983.7 472.2l-.7 29.5-.6 6.8-1.6 22.6-1 7.7-1.3 8.1-1.3 5.5-1.9 5.2-2.6 5.1-4.9 6.5-5.5 5.5-5.8 4.5-6.4 3.9-12.3 6.4-12.9 5.2-13.3 4.5-13.2 3.9-13.6 3.2-13.9 2.3-20.6 2.9-21.4 1.6-20.7 1-21 .3H547.5l-15.1-.3 1.2.3-2.2-.3h-.4l-1.9-1.3-1.7-1.9-.9-2.3v-.3l-.4-1.3v-24.9l.4-47.2V335.6l.3-1.3v-.3l1-2.3 1.6-1.6 1.9-1.3 2.6-.4h253.3l21 .4 21 .6 21.4 1.6 20.9 3 13.9 2.5 13.6 3.3 13.6 3.8 13.3 4.6 12.9 5.5 12.6 6.4 6.1 4.2 5.8 4.5 5.5 5.9 4.6 6.4 2.5 5.2 2 5.5 1.3 5.5 1.2 8.1 1 7.7v.3l2 29.5zM599.5 578.5h187.7l18.5-.3 18.1-.7 18.4-1.3 18-2.2 14.6-2.3 14.5-3.2 13.9-3.9 13.9-4.9 12.9-6.1 3.6-2 3.2-1.9 2.6-2.6 2.6-3.2 1.6-3.2 1.3-3.9 1-3.6.3-3.8 2.6-28.8.6-29.1-.6-29.1-1.9-28.7-.7-3.9-1-3.5-1.6-3.6-1.6-3.2-2.2-2.9-2.7-2.9-2.8-2.3-3.3-2-13.2-6.1-13.6-5.2-14.2-3.8-14.5-3.3-14.6-2.5-18.4-2-18.4-1.6-18.4-.7H599.8l-4.2.7-3.9 2.3-2.2 2.6-1.7 3.5-.3 3.5v83.1l-.3 105.7.6 4.1 2.3 3.9 2.6 2.6 3.2 1.6z" class="s0"/><path fill-rule="evenodd" d="m787.2 563.7-11.6.6-11 .7H606l-1-.7-.7-.3-.6-.6-.7-1-.3-1-.3-.9-.7-3.6-.3-3.9.3-72v-91.8l.4-4.5 1.3-4.2 1.3-1.9 1-.7.6-.3h155.1l7.4.3 9.4.7 9 .6 13.3 1.3 13.3 1.9 12.6 2.3 15.8 3.5 15.8 3.9 15.2 4.9 3.6 2.2 1.9 1.6 1.6 2.3 2.3 4.2 1.5 4.6 1.3 4.5.7 4.8 1.3 22 .7 22.3-.7 27.8-1.6 28-.7 4.9-1 4.9-1.2 4.5-2.3 4.2-1.9 1.9-1.9 2-2.7 1.3-2.6.9-15.8 5.2-16.5 4.2-16.8 3.6-17.4 2.5zm-65.4-54.8c2.5-3.1 4.7-6.5 6.5-10.1 1.8-3.5 3.3-7.3 4.4-11.2 2.3-8 3-16.3 2-24.7-1-7.8-3.3-15.2-6.9-22-3.6-6.6-8.2-12.4-13.9-17.4-11.4-10.1-26-15.6-41.2-15.6-2.5 0-5.1.2-7.6.5-8.3 1-16.3 3.6-23.5 7.8-3.5 2-6.8 4.3-9.9 7-3 2.6-5.8 5.5-8.2 8.7-2.5 3.1-4.7 6.5-6.5 10-1.8 3.6-3.3 7.4-4.4 11.3-2.3 8-3 16.4-2 24.7.9 7.8 3.3 15.2 6.9 22 3.6 6.6 8.2 12.4 13.8 17.4 11.5 10.1 26.1 15.6 41.3 15.6q3.8 0 7.6-.5c8.3-1 16.3-3.6 23.5-7.8 3.5-2 6.8-4.3 9.9-7 3-2.6 5.8-5.5 8.2-8.7z" class="s0"/><path fill-rule="evenodd" d="M716.6 504.8c-9.2 11.7-22.4 19.2-37.2 21q-3.4.4-6.8.4c-28.1 0-51.9-21.1-55.3-49.1-1.8-14.9 2.2-29.5 11.4-41.2 9.2-11.7 22.5-19.2 37.3-21 2.2-.3 4.5-.4 6.8-.4 28.1 0 51.9 21.1 55.3 49.1 1.8 14.8-2.3 29.4-11.5 41.2zm-3.6-29.9-10.7-7.5c-3.7-2.6-5.7-8.4-4.3-12.8l3.9-12.4c1.4-4.4-.9-6.4-5.1-4.5l-11.8 5.5c-4.2 1.9-10.2.7-13.3-2.7l-8.8-9.6c-3.1-3.4-6-2.4-6.4 2.2l-1.2 13c-.4 4.6-4.4 9.2-8.9 10.2l-12.7 2.8c-4.5 1-5.1 4-1.4 6.6l10.7 7.5c3.8 2.7 5.7 8.4 4.4 12.8l-4 12.5c-1.3 4.4.9 6.4 5.1 4.5l11.9-5.5c4.1-2 10.1-.8 13.2 2.6l8.9 9.6c3.1 3.4 6 2.5 6.4-2.1l1.1-13c.4-4.6 4.4-9.2 8.9-10.2l12.8-2.8c4.5-1 5.1-4 1.3-6.7z" class="s0"/></g></g></svg>